HIERARCHY
ROOT Hips
{
	OFFSET	0.00	0.00	0.00
	CHANNELS 6 Xposition Yposition Zposition Zrotation Xrotation Yrotation
	JOINT LeftUpLeg
	{
		OFFSET	 0.126116	-0.065224	 0.014019
		CHANNELS 3 Zrotation Xrotation Yrotation
		JOINT LeftLeg
		{
			OFFSET	 0.000000	 0.569914	 0.000000
			CHANNELS 3 Zrotation Xrotation Yrotation
			JOINT LeftFoot
			{
				OFFSET	 0.000000	 0.544423	 0.000000
				CHANNELS 3 Zrotation Xrotation Yrotation
				JOINT LeftToeBase
				{
					OFFSET	 0.000000	 0.207117	 0.000000
					CHANNELS 3 Zrotation Xrotation Yrotation
					End Site
					{
						OFFSET	 0.000000	 0.207117	 0.000000
					}
				}
			}
		}
	}
	JOINT RightUpLeg
	{
		OFFSET	-0.124023	-0.065224	 0.008373
		CHANNELS 3 Zrotation Xrotation Yrotation
		JOINT RightLeg
		{
			OFFSET	 0.000000	 0.570047	 0.000000
			CHANNELS 3 Zrotation Xrotation Yrotation
			JOINT RightFoot
			{
				OFFSET	 0.000000	 0.544354	 0.000000
				CHANNELS 3 Zrotation Xrotation Yrotation
				JOINT RightToeBase
				{
					OFFSET	 0.000000	 0.207540	 0.000000
					CHANNELS 3 Zrotation Xrotation Yrotation
					End Site
					{
						OFFSET	 0.000000	 0.207540	 0.000000
					}
				}
			}
		}
	}
	JOINT Spine
	{
		OFFSET	 0.000184	 0.117403	 0.007763
		CHANNELS 3 Zrotation Xrotation Yrotation
		JOINT Spine1
		{
			OFFSET	 0.000000	 0.137269	 0.000000
			CHANNELS 3 Zrotation Xrotation Yrotation
			JOINT Spine2
			{
				OFFSET	 0.000000	 0.156879	 0.000000
				CHANNELS 3 Zrotation Xrotation Yrotation
				JOINT LeftShoulder
				{
					OFFSET	 0.080501	 0.160143	 0.002496
					CHANNELS 3 Zrotation Xrotation Yrotation
					JOINT LeftArm
					{
						OFFSET	 0.000000	 0.164363	 0.000000
						CHANNELS 3 Zrotation Xrotation Yrotation
						JOINT LeftForeArm
						{
							OFFSET	 0.000000	 0.364576	 0.000000
							CHANNELS 3 Zrotation Xrotation Yrotation
							JOINT LeftHand
							{
								OFFSET	 0.000000	 0.360812	 0.000000
								CHANNELS 3 Zrotation Xrotation Yrotation
								JOINT LeftHandIndex1
								{
									OFFSET	 0.000000	 0.086006	 0.000000
									CHANNELS 3 Zrotation Xrotation Yrotation
									JOINT LeftHandIndex2
									{
										OFFSET	 0.000000	 0.047237	 0.000000
										CHANNELS 3 Zrotation Xrotation Yrotation
										JOINT LeftHandIndex3
										{
											OFFSET	-0.004284	 0.038165	 0.000551
											CHANNELS 3 Zrotation Xrotation Yrotation
											End Site
											{
												OFFSET	-0.004284	 0.038165	 0.000551
											}
										}
									}
								}
							}
						}
					}
				}
				JOINT Neck
				{
					OFFSET	 0.000000	 0.176489	 0.000000
					CHANNELS 3 Zrotation Xrotation Yrotation
					JOINT Head
					{
						OFFSET	 0.000000	 0.077941	 0.001747
						CHANNELS 3 Zrotation Xrotation Yrotation
						End Site
						{
							OFFSET	 0.000000	 0.077941	 0.001747
						}
					}
				}
				JOINT RightShoulder
				{
					OFFSET	-0.080363	 0.159706	-0.000306
					CHANNELS 3 Zrotation Xrotation Yrotation
					JOINT RightArm
					{
						OFFSET	 0.000000	 0.164196	 0.000000
						CHANNELS 3 Zrotation Xrotation Yrotation
						JOINT RightForeArm
						{
							OFFSET	 0.000000	 0.365611	 0.000000
							CHANNELS 3 Zrotation Xrotation Yrotation
							JOINT RightHand
							{
								OFFSET	 0.000000	 0.360648	 0.000000
								CHANNELS 3 Zrotation Xrotation Yrotation
								JOINT RightHandIndex1
								{
									OFFSET	 0.000000	 0.069977	 0.000000
									CHANNELS 3 Zrotation Xrotation Yrotation
									JOINT RightHandIndex2
									{
										OFFSET	 0.000000	 0.052305	 0.000000
										CHANNELS 3 Zrotation Xrotation Yrotation
										JOINT RightHandIndex3
										{
											OFFSET	 0.009002	 0.042196	 0.000782
											CHANNELS 3 Zrotation Xrotation Yrotation
											End Site
											{
												OFFSET	 0.009002	 0.042196	 0.000782
											}
										}
									}
								}
							}
						}
					}
				}
			}
		}
	}
}
MOTION
Frames:    5
Frame Time: 0.03333334
 0.463808	 1.046259	 0.618619	-8.775233	-32.806290	-179.372000	 117.604300	 69.609600	 55.554680	 30.561360	-62.414000	 35.441560	-6.907841	 79.033840	-6.686606	 1.292262	 28.425850	-2.713146	-142.725000	 81.656470	-50.489970	-30.152150	-69.060390	-37.571060	-30.386210	 81.525710	 43.591140	-1.288183	 28.361890	 2.710176	 0.034671	 14.151660	 0.383674	 0.212673	 15.739760	-1.558543	-2.487140	 2.649892	-4.967241	-122.917800	 30.531580	 106.417500	 34.890980	-1.095094	 11.372940	 41.602380	-3.092623	-40.354230	 26.268100	-20.272500	 23.298670	-6.580301	 5.266122	 0.000000	 0.000000	 0.000000	 0.000000	 0.000000	 0.000000	 0.000000	 6.234581	 27.207650	-2.606613	-3.862507	-38.166530	-1.318570	 124.621800	 29.109330	-106.599000	-39.907870	-1.830003	 8.061861	-40.572690	 0.889042	-5.187829	-15.881960	-37.347440	-17.762870	 15.208500	 5.323790	 0.000000	 0.000000	 0.000000	 0.000000	 0.000000	 0.000000	 0.000000
 0.454951	 1.094394	 0.615769	-7.373732	-30.186210	-179.237800	 134.335500	 64.999070	 41.338910	 22.966450	-55.751370	 28.104170	-2.492915	 76.243770	-10.395860	 1.292262	 28.425850	-2.713146	-163.001000	 74.648630	-30.091730	-21.046900	-61.844350	-29.811570	-27.779250	 78.485830	 40.728340	-1.288183	 28.361890	 2.710176	 0.020030	 12.844380	-1.170298	-0.253304	 14.408990	-1.752718	-1.254920	 1.122488	-1.822799	-121.519200	 28.097510	 104.622700	 33.601760	 6.453006	 11.048660	 44.597960	-3.270081	-39.068400	 29.370610	-34.377400	 24.133090	-6.580301	 5.266122	 0.000000	 0.000000	 0.000000	 0.000000	 0.000000	 0.000000	 0.000000	 2.579336	 18.249350	-1.477820	-1.610143	-29.888290	-0.569611	 124.540200	 27.045970	-105.439700	-36.299550	 1.957296	 4.665773	-45.709630	 0.978414	-3.597595	-28.784060	-40.295110	-22.104400	 15.208500	 5.323790	 0.000000	 0.000000	 0.000000	 0.000000	 0.000000	 0.000000	 0.000000
 0.447859	 1.139388	 0.608579	-5.627397	-27.314460	-178.533400	 145.935100	 58.886280	 32.718200	 17.702200	-48.857050	 23.730500	 2.330688	 73.552070	-14.383050	 1.292262	 28.425850	-2.713146	-169.846400	 66.661220	-22.771400	-15.578210	-54.408280	-25.371610	-25.563530	 75.436330	 37.988490	-1.288183	 28.361890	 2.710176	 0.176743	 11.162720	-2.952637	-0.256939	 13.745740	-2.148808	-0.107249	-1.406608	 1.410147	-116.457800	 24.367040	 101.275200	 34.003740	 16.301870	 9.539321	 47.828140	-3.451246	-37.006320	 35.363470	-49.361330	 27.728310	-6.580301	 5.266122	 0.000000	 0.000000	 0.000000	 0.000000	 0.000000	 0.000000	 0.000000	 0.699183	 6.135252	-1.047712	-0.662172	-19.044830	 0.115545	 121.485400	 24.391490	-103.076200	-34.592480	 7.966297	 2.860320	-51.282660	 1.066402	-4.040680	-40.806480	-43.787050	-25.250920	 15.208500	 5.323790	 0.000000	 0.000000	 0.000000	 0.000000	 0.000000	 0.000000	 0.000000
 0.445100	 1.176579	 0.593773	-3.112750	-23.124430	-176.978400	 154.399000	 51.133130	 28.522660	 14.436390	-43.181070	 21.579450	 8.377640	 71.736130	-19.181740	 1.292262	 28.425850	-2.713146	-172.835700	 57.498450	-18.578510	-12.262100	-47.855000	-20.840630	-20.134440	 73.339070	 30.697720	-1.288183	 28.361890	 2.710176	 0.504244	 9.096045	-5.474732	 0.227652	 15.873640	-2.977434	 1.201261	-6.270956	 5.600041	-115.426100	 19.888680	 98.982360	 34.066640	 23.741770	 11.489710	 50.720240	-3.604256	-33.096730	 56.238980	-67.721470	 45.526550	-6.580301	 5.266122	 0.000000	 0.000000	 0.000000	 0.000000	 0.000000	 0.000000	 0.000000	-1.636858	-2.659917	-1.010415	 0.346989	-11.139070	 0.787143	 118.957600	 20.228230	-100.333500	-33.086460	 15.346270	 1.258059	-56.512290	 1.139867	-6.312238	-55.503360	-48.319520	-28.513630	 15.208500	 5.323790	 0.000000	 0.000000	 0.000000	 0.000000	 0.000000	 0.000000	 0.000000
 0.443004	 1.207477	 0.575326	-1.498732	-19.874010	-175.546200	 159.916600	 44.050210	 26.254550	 11.607530	-37.139860	 19.432140	 10.337340	 69.590900	-19.495800	 1.292262	 28.425850	-2.713146	-174.841000	 49.417480	-15.919030	-9.694639	-41.222350	-16.400280	-14.685410	 71.372690	 23.469410	-1.288183	 28.361890	 2.710176	 0.559125	 7.068672	-7.113135	 0.751189	 13.153490	-3.752699	 1.594634	-7.272923	 7.988770	-117.410600	 17.371400	 98.252500	 30.999120	 25.014600	 17.282040	 54.395340	-3.785331	-29.758440	 78.275150	-77.602420	 70.731270	-6.580301	 5.266122	 0.000000	 0.000000	 0.000000	 0.000000	 0.000000	 0.000000	 0.000000	-1.849825	-2.446639	-1.124996	 0.213742	-10.514470	 1.318100	 121.927200	 17.316690	-99.610600	-30.462740	 17.885970	-2.109868	-59.659310	 1.179572	-8.169057	-58.249190	-50.088230	-26.343200	 15.208500	 5.323790	 0.000000	 0.000000	 0.000000	 0.000000	 0.000000	 0.000000	 0.000000
